<svg xmlns="http://www.w3.org/2000/svg" width="40" height="40" fill="none" viewBox="0 0 40 40">
    <rect width="40" height="40" fill="#57DADC" rx="20"/>
    <path fill="#fff" d="M17.133 28.352l-6.825-6.825c-.41-.41-.41-1.075 0-1.485l1.484-1.485c.41-.41 1.075-.41 1.485 0l4.598 4.598 9.848-9.848c.41-.41 1.075-.41 1.485 0l1.485 1.486c.41.41.41 1.074 0 1.484L18.616 28.352c-.41.41-1.074.41-1.485 0z"/>
    <mask id="pam1xexc3a" width="21" height="16" x="10" y="13" maskUnits="userSpaceOnUse">
        <path fill="#fff" d="M17.133 28.352l-6.825-6.825c-.41-.41-.41-1.075 0-1.485l1.484-1.485c.41-.41 1.075-.41 1.485 0l4.598 4.598 9.848-9.848c.41-.41 1.075-.41 1.485 0l1.485 1.486c.41.41.41 1.074 0 1.484L18.616 28.352c-.41.41-1.074.41-1.485 0z"/>
    </mask>
</svg>
