<svg width="13" height="9" fill="none" xmlns="http://www.w3.org/2000/svg">
    <path d="m5.995 8.229-5.786-6.2a.805.805 0 0 1 0-1.082L.884.224a.681.681 0 0 1 1.01-.001L6.5 5.136 11.107.223a.681.681 0 0 1 1.009.001l.675.723c.279.3.279.784 0 1.083L7.005 8.229a.681.681 0 0 1-1.01 0z" fill="#C2C2C2"/>
    <mask id="a" mask-type="alpha" maskUnits="userSpaceOnUse" x="0" y="0" width="13" height="9">
        <path d="m5.995 8.229-5.786-6.2a.805.805 0 0 1 0-1.082L.884.224a.681.681 0 0 1 1.01-.001L6.5 5.136 11.107.223a.681.681 0 0 1 1.009.001l.675.723c.279.3.279.784 0 1.083L7.005 8.229a.681.681 0 0 1-1.01 0z" fill="#fff"/>
    </mask>
</svg>
