<svg xmlns="http://www.w3.org/2000/svg" width="18" height="16" fill="none" viewBox="0 0 18 16">
    <path fill="#102D2D" fill-rule="evenodd" d="M6.75.762H2.988c-.61 0-1.136.217-1.582.65-.445.434-.668.967-.668 1.6v10.476c0 .633.223 1.166.668 1.6.446.434.973.65 1.582.65h12.024c.398 0 .767-.1 1.107-.298.34-.2.615-.47.826-.81.211-.339.317-.72.317-1.142V5.262c0-.633-.223-1.166-.668-1.6-.446-.433-.973-.65-1.582-.65H8.648L7.383 1.078C7.219.868 7.008.762 6.75.762zm-.387 1.476H2.988c-.21 0-.386.076-.527.229-.14.152-.211.334-.211.545v10.476c0 .211.07.393.21.545.142.152.317.229.528.229h12.024c.21 0 .386-.077.527-.229.14-.152.211-.334.211-.545V5.262c0-.14-.035-.27-.105-.387-.07-.117-.159-.21-.264-.281-.106-.07-.229-.106-.37-.106h-6.75c-.28 0-.491-.105-.632-.316L6.363 2.238z" clip-rule="evenodd"/>
</svg>
