<svg xmlns="http://www.w3.org/2000/svg" width="12" height="9" fill="none" viewBox="0 0 12 9">
    <path fill="#fff" d="M3.676.676h7.574c.164 0 .3.054.41.164.128.11.192.246.192.41 0 .164-.064.3-.192.41-.11.11-.246.164-.41.164H3.648c-.145 0-.282-.054-.41-.164-.11-.11-.164-.246-.164-.41 0-.164.055-.3.164-.41.128-.11.265-.164.41-.164h.028zm0 3.5h7.574c.164 0 .3.054.41.164.128.11.192.246.192.41 0 .164-.064.3-.192.41-.11.11-.246.164-.41.164H3.648c-.145 0-.282-.054-.41-.164-.11-.11-.164-.246-.164-.41 0-.164.055-.3.164-.41.128-.11.265-.164.41-.164h.028zm0 3.5h7.574c.164 0 .3.054.41.164.128.11.192.246.192.41 0 .11-.028.21-.082.3-.055.092-.128.165-.22.22-.09.036-.19.054-.3.054H3.648c-.145 0-.282-.054-.41-.164-.11-.11-.164-.246-.164-.41 0-.164.055-.3.164-.41.128-.11.265-.164.41-.164h.028zM.312.84C.44.73.587.676.75.676c.164 0 .3.054.41.164.128.11.192.246.192.41 0 .164-.064.3-.192.41-.11.11-.246.164-.41.164-.164 0-.31-.054-.438-.164-.109-.11-.164-.246-.164-.41 0-.164.055-.3.165-.41zm0 3.5c.128-.11.274-.164.438-.164.164 0 .3.054.41.164.128.11.192.246.192.41 0 .164-.064.3-.192.41-.11.11-.246.164-.41.164-.164 0-.31-.054-.438-.164-.109-.11-.164-.246-.164-.41 0-.164.055-.3.165-.41zm0 3.5c.128-.11.274-.164.438-.164.164 0 .3.054.41.164.128.11.192.246.192.41 0 .073-.019.146-.055.219-.037.073-.082.136-.137.191-.036.055-.091.1-.164.137-.073.018-.155.027-.246.027-.164 0-.31-.054-.438-.164-.109-.11-.164-.246-.164-.41 0-.164.055-.3.165-.41z"/>
</svg>
