<svg xmlns="http://www.w3.org/2000/svg" width="65" height="65" fill="none" viewBox="0 0 65 65">
    <path fill="url(#paint0_linear)" fill-rule="evenodd" d="M45.74 2.983C42.152 1.327 38.518.36 34.838.085c-5.243-.368-10.234.46-14.972 2.484C15.128 4.593 11.15 7.536 7.93 11.4c-2.944 3.496-5.106 7.337-6.486 11.523S-.326 31.616.271 36.446c.598 4.83 2.277 9.406 5.037 13.73 4.14 6.348 9.567 10.649 16.283 12.902 6.716 2.254 13.408 2.415 20.078.483 6.67-1.931 12.212-5.68 16.628-11.246 4.416-5.566 6.624-12.166 6.624-19.802v-2.76c0-.828-.3-1.518-.897-2.07-.598-.552-1.288-.828-2.07-.828-.782 0-1.472.276-2.07.828-.598.552-.897 1.242-.897 2.07v2.76c0 4.324-.874 8.257-2.622 11.799-1.748 3.541-4.025 6.44-6.83 8.693-2.806 2.254-6.003 3.887-9.591 4.899-5.52 1.656-10.97 1.587-16.352-.207s-9.82-5.405-13.316-10.833C6.872 41.07 5.423 35.457 5.929 30.03c.506-5.427 2.645-10.326 6.416-14.696 3.772-4.37 8.28-7.268 13.524-8.693 5.244-1.426 11.04-.897 17.387 1.586.368.276.782.414 1.242.414.552 0 1.058-.138 1.518-.414.46-.276.828-.643 1.104-1.103.276-.46.414-.966.414-1.518 0-1.288-.598-2.162-1.794-2.622zm16.283 3.036h-.138c-.828 0-1.518.276-2.07.828l-27.323 27.46-6.761-6.762c-.552-.644-1.242-.966-2.07-.966-.828 0-1.541.3-2.139.897-.598.598-.897 1.311-.897 2.14 0 .827.322 1.517.966 2.07l8.831 8.83c.552.553 1.242.829 2.07.829.828 0 1.518-.276 2.07-.828l29.393-29.53c.644-.553.966-1.243.966-2.07 0-.829-.3-1.518-.897-2.07-.598-.552-1.265-.828-2.001-.828z" clip-rule="evenodd"/>
    <defs>
        <linearGradient id="paint0_linear" x1="73.147" x2="12.928" y1="8.536" y2="-7.922" gradientUnits="userSpaceOnUse">
            <stop stop-color="#1AFA97"/>
            <stop offset=".484" stop-color="#57DADC"/>
            <stop offset="1" stop-color="#FFCB00"/>
        </linearGradient>
    </defs>
</svg>
