<svg xmlns="http://www.w3.org/2000/svg" width="25" height="29" fill="none" viewBox="0 0 25 29">
    <path fill="#000" d="M9.57 11.695c.814-.813 1.79-1.22 2.93-1.22 1.14 0 2.116.407 2.93 1.22.814.814 1.22 1.79 1.22 2.93 0 1.14-.406 2.116-1.22 2.93-.814.814-1.79 1.22-2.93 1.22-1.14 0-2.116-.406-2.93-1.22-.813-.814-1.22-1.79-1.22-2.93 0-1.14.407-2.116 1.22-2.93zm4.395 1.465c-.39-.423-.88-.635-1.465-.635-.586 0-1.09.212-1.514.635-.39.39-.586.88-.586 1.465 0 .586.196 1.09.586 1.514.423.39.928.586 1.514.586s1.074-.196 1.465-.586c.423-.423.635-.928.635-1.514s-.212-1.074-.635-1.465zM10.303 3.053c.618-.619 1.35-.928 2.197-.928.846 0 1.579.31 2.197.928.619.618.928 1.35.928 2.197v.098c0 .293.13.504.39.634h.05c.26.098.504.05.732-.146l.049-.049c.618-.618 1.35-.928 2.197-.928.879 0 1.611.31 2.197.928.619.586.928 1.318.928 2.197 0 .88-.293 1.612-.879 2.198l-.098.048c-.195.228-.227.489-.097.782 0 .032.016.065.049.097.13.26.309.391.537.391h.195c.846 0 1.579.31 2.197.928.619.618.928 1.35.928 2.197 0 .846-.31 1.579-.928 2.197-.618.619-1.35.928-2.197.928h-.098c-.293 0-.504.13-.634.39v.05c-.098.26-.05.504.146.732l.049.049c.618.618.928 1.367.928 2.246 0 .846-.31 1.579-.928 2.197-.586.586-1.319.879-2.197.879-.88 0-1.612-.293-2.198-.879l-.049-.098c-.227-.195-.488-.227-.78-.097-.261.097-.391.293-.391.586V24c0 .846-.31 1.579-.928 2.197-.619.619-1.367.928-2.246.928-.846 0-1.579-.31-2.197-.928-.586-.618-.88-1.35-.88-2.197v-.049c-.032-.325-.178-.537-.439-.635-.032 0-.065-.016-.097-.048-.26-.098-.505-.05-.733.146l-.049.049c-.618.618-1.367.928-2.246.928-.846 0-1.579-.31-2.197-.928-.586-.586-.879-1.319-.879-2.197 0-.88.293-1.612.879-2.198l.098-.049c.195-.227.227-.471.097-.732-.097-.293-.293-.44-.586-.44h-.195c-.846 0-1.579-.309-2.197-.927C.309 16.3 0 15.569 0 14.723c0-.88.31-1.612.928-2.198.618-.618 1.35-.927 2.197-.927h.049c.325-.033.537-.18.635-.44 0-.032.016-.065.048-.098.098-.26.05-.504-.146-.732l-.049-.049c-.618-.618-.928-1.35-.928-2.197 0-.879.293-1.611.88-2.197.618-.619 1.366-.928 2.245-.928.88 0 1.612.293 2.198.879l.048.098c.228.195.489.227.782.097.032 0 .065-.016.097-.049.26-.13.391-.309.391-.537V5.25c0-.846.31-1.579.928-2.197zm2.93 1.465c-.196-.196-.44-.293-.733-.293s-.537.097-.732.293c-.196.195-.293.439-.293.732v.195c0 .554-.163 1.058-.489 1.514-.293.456-.7.781-1.22.977-.13.065-.26.097-.391.097h-.098l.44-.097c-.521.227-1.058.293-1.612.195-.553-.098-1.025-.342-1.416-.733h-.048l-.05-.048c-.195-.228-.439-.342-.732-.342s-.553.114-.78.342c-.196.195-.294.44-.294.732 0 .26.114.505.342.732l.049.05c.879.878 1.074 1.887.586 3.027-.196.52-.521.944-.977 1.27-.456.325-.976.487-1.562.487h-.098c-.195 0-.374.05-.537.147-.163.098-.293.228-.39.39-.066.163-.098.342-.098.538 0 .293.097.537.293.732.195.195.439.293.732.293h.195c.554 0 1.058.163 1.514.488.456.293.781.684.977 1.172.227.521.293 1.058.195 1.611-.098.554-.342 1.026-.733 1.417v.048l-.048.05c-.228.195-.342.439-.342.732s.097.553.293.78c.228.196.472.294.732.294.293 0 .554-.114.781-.342l.05-.049c.878-.879 1.887-1.074 3.027-.586.52.196.944.521 1.27.977.325.456.487.976.487 1.562V24c0 .293.098.537.293.732.228.196.489.293.782.293.293 0 .537-.097.732-.293.195-.195.293-.439.293-.732v-.195c0-.554.147-1.058.44-1.514.325-.456.732-.781 1.22-.977.521-.227 1.058-.293 1.612-.195.553.098 1.025.342 1.416.733h.048l.05.048c.195.228.439.342.732.342s.537-.098.732-.293c.228-.228.342-.472.342-.732 0-.293-.114-.554-.342-.781l-.049-.05c-.39-.422-.65-.91-.781-1.464-.098-.553-.033-1.074.195-1.563.228-.52.57-.927 1.026-1.22.455-.326.96-.489 1.513-.489h.098c.293 0 .537-.097.732-.293.196-.195.293-.439.293-.732s-.097-.537-.293-.732c-.195-.196-.439-.293-.732-.293h-.195c-.358 0-.7-.066-1.026-.196-.325-.162-.618-.358-.879-.586-.26-.26-.455-.57-.585-.927-.066-.13-.098-.26-.098-.391v-.098l.098.44c-.228-.521-.294-1.058-.196-1.612.098-.553.342-1.025.733-1.416v-.048l.048-.05c.228-.195.342-.439.342-.732s-.114-.537-.342-.732c-.195-.228-.44-.342-.732-.342-.26 0-.505.114-.732.342l-.05.049c-.422.39-.91.65-1.464.781-.553.098-1.074.033-1.563-.195-.52-.228-.944-.57-1.27-1.026-.292-.455-.439-.96-.439-1.513V5.25c0-.293-.097-.537-.293-.732z"/>
</svg>
