<svg width="16" height="17" fill="none" xmlns="http://www.w3.org/2000/svg">
    <path d="M2.285 1.512h10.477c.633 0 1.16.222 1.582.668.445.445.668.972.668 1.582v10.511c0 .61-.223 1.137-.668 1.582-.422.446-.95.668-1.582.668H2.285a2.223 2.223 0 0 1-2.25-2.25V3.762a2.223 2.223 0 0 1 2.25-2.25zm0 1.511a.84.84 0 0 0-.562.211.715.715 0 0 0-.211.528v10.511c0 .211.07.387.21.528a.84.84 0 0 0 .563.21h10.477c.21 0 .386-.07.527-.21a.666.666 0 0 0 .246-.528V3.762a.666.666 0 0 0-.246-.528.716.716 0 0 0-.527-.21H2.285zM10.512 0c.21 0 .386.082.527.246.164.14.246.305.246.492v3.024c0 .21-.082.398-.246.562a.716.716 0 0 1-.527.211.797.797 0 0 1-.528-.21.84.84 0 0 1-.21-.563V.738c0-.093.011-.187.035-.281a.53.53 0 0 1 .175-.21.938.938 0 0 1 .246-.177.624.624 0 0 1 .282-.07zM4.5 0h.035c.188 0 .352.082.492.246.164.14.246.305.246.492v3.024c0 .21-.082.398-.246.562a.715.715 0 0 1-.527.211.797.797 0 0 1-.527-.21.84.84 0 0 1-.211-.563V.738c0-.187.07-.351.21-.492C4.138.082 4.313 0 4.5 0zM.773 6.012h13.5c.211 0 .387.082.528.246.164.14.246.316.246.527 0 .188-.082.363-.246.527a.715.715 0 0 1-.528.211H.773a.84.84 0 0 1-.562-.21A.797.797 0 0 1 0 6.784c0-.21.07-.387.21-.527a.774.774 0 0 1 .563-.246z" fill="#C2C2C2"/>
</svg>
