<svg xmlns="http://www.w3.org/2000/svg" width="16" height="18" fill="none" viewBox="0 0 16 18">
    <path fill="#102D2D" d="M2.762 2.5h10.476c.633 0 1.16.223 1.582.668.446.445.668.973.668 1.582v10.512c0 .61-.222 1.136-.668 1.582-.422.445-.949.668-1.582.668H2.762c-.633 0-1.172-.223-1.617-.668-.422-.446-.633-.973-.633-1.582V4.75c0-.61.21-1.137.633-1.582.445-.445.984-.668 1.617-.668zm0 1.512c-.211 0-.399.07-.563.21-.14.141-.21.317-.21.528v10.512c0 .21.07.386.21.527.164.14.352.211.563.211h10.476c.211 0 .387-.07.528-.21.164-.142.246-.317.246-.528V4.75c0-.21-.082-.387-.246-.527-.141-.141-.317-.211-.528-.211H2.762zM10.988.988c.211 0 .387.082.528.246.164.141.246.305.246.493V4.75c0 .21-.082.398-.246.563-.141.14-.317.21-.528.21-.187 0-.363-.07-.527-.21-.14-.165-.211-.352-.211-.563V1.727c0-.094.012-.188.035-.282.047-.093.106-.164.176-.21.07-.07.152-.13.246-.176.094-.047.188-.07.281-.07zm-6.011 0h.035c.187 0 .351.082.492.246.164.141.246.305.246.493V4.75c0 .21-.082.398-.246.563-.14.14-.316.21-.527.21-.188 0-.364-.07-.528-.21-.14-.165-.21-.352-.21-.563V1.727c0-.188.07-.352.21-.493.164-.164.34-.246.528-.246zM1.25 7h13.5c.21 0 .387.082.527.246.164.14.246.316.246.527 0 .188-.082.364-.246.528-.14.14-.316.21-.527.21H1.25c-.21 0-.398-.07-.563-.21-.14-.164-.21-.34-.21-.528 0-.21.07-.386.21-.527C.853 7.082 1.04 7 1.25 7z"/>
</svg>
