<svg xmlns="http://www.w3.org/2000/svg" width="14" height="19" fill="none" viewBox="0 0 14 19">
    <path fill="#102D2D" d="M2.746 2.008C3.918.836 5.336.25 7 .25c1.664 0 3.082.586 4.254 1.758 1.172 1.172 1.758 2.59 1.758 4.254 0 1.64-.586 3.047-1.758 4.218-1.172 1.172-2.59 1.758-4.254 1.758-1.664 0-3.082-.586-4.254-1.758C1.574 9.31.988 7.902.988 6.262c0-1.664.586-3.082 1.758-4.254zm7.418 1.054c-.867-.867-1.922-1.3-3.164-1.3-1.242 0-2.309.433-3.2 1.3-.866.868-1.3 1.934-1.3 3.2 0 .82.2 1.582.598 2.285.398.68.937 1.219 1.617 1.617.703.399 1.465.598 2.285.598.82 0 1.57-.2 2.25-.598.703-.398 1.254-.937 1.652-1.617.399-.703.598-1.465.598-2.285 0-1.266-.445-2.332-1.336-3.2zm-.351 6.82h.035c.187 0 .351.071.492.212.14.14.223.293.246.457l.914 6.855v.106c0 .187-.07.351-.21.492-.142.164-.317.246-.528.246-.14 0-.27-.035-.387-.105L7 16.14l-3.375 2.004c-.117.07-.246.105-.387.105-.117 0-.234-.035-.351-.105-.117-.07-.211-.165-.282-.282-.07-.117-.105-.234-.105-.351v-.106l.914-6.82c.023-.188.106-.34.246-.457.14-.14.305-.211.492-.211.141 0 .27.035.387.105.117.047.211.13.281.247.07.117.106.246.106.386 0 .047-.012.082-.035.106l-.704 5.308 2.426-1.476c.117-.07.246-.106.387-.106.14 0 .27.035.387.106l2.426 1.476-.704-5.308c-.023-.047-.035-.082-.035-.106 0-.14.035-.258.106-.351.07-.117.152-.211.246-.282.117-.07.246-.117.386-.14z"/>
</svg>
