<svg xmlns="http://www.w3.org/2000/svg" width="12" height="14" fill="none" viewBox="0 0 12 14">
    <path fill="#fff" d="M.75 2.676h10.5c.164 0 .3.054.41.164.128.11.192.246.192.41 0 .164-.064.3-.192.41-.11.11-.246.164-.41.164H.75c-.164 0-.31-.054-.438-.164-.109-.11-.164-.246-.164-.41 0-.164.055-.3.165-.41.127-.11.273-.164.437-.164zM4.824.324h2.352c.474 0 .884.173 1.23.52.347.346.52.756.52 1.23V3.25c0 .164-.064.31-.192.438-.109.109-.246.164-.41.164-.146 0-.282-.055-.41-.164-.11-.128-.164-.274-.164-.438V2.074c0-.164-.055-.3-.164-.41-.11-.11-.246-.164-.41-.164H4.824c-.164 0-.3.055-.41.164-.11.11-.164.246-.164.41V3.25c0 .164-.064.31-.191.438-.11.109-.247.164-.41.164-.146 0-.283-.055-.41-.164-.11-.128-.165-.274-.165-.438V2.074c0-.474.173-.884.52-1.23.346-.347.756-.52 1.23-.52zM1.898 2.648h.028c.146 0 .273.064.383.192.127.11.191.246.191.41v8.176c0 .164.055.3.164.41.11.11.246.164.41.164h5.852c.164 0 .3-.055.41-.164.11-.11.164-.246.164-.41V3.25c0-.164.055-.3.164-.41.128-.128.264-.192.41-.192.164 0 .301.064.41.192.128.11.192.246.192.41v8.176c0 .474-.173.884-.52 1.23-.346.347-.756.52-1.23.52H3.074c-.474 0-.884-.173-1.23-.52-.347-.346-.52-.756-.52-1.23V3.25c0-.091.018-.164.055-.219.036-.073.073-.136.11-.191.054-.055.118-.1.19-.137.074-.036.147-.055.22-.055z"/>
</svg>
